<svg width="181" height="55" viewBox="0 0 181 55" fill="none" xmlns="http://www.w3.org/2000/svg">
<path fill-rule="evenodd" clip-rule="evenodd" d="M4.06181 25.0126H5.18158C5.2368 25.0126 5.28538 25.0552 5.28538 25.1126V26.1707C5.28538 26.226 5.2368 26.2728 5.18158 26.2728H4.06181C4.00439 26.2728 3.95801 26.226 3.95801 26.1707V25.1126C3.95801 25.0573 4.00439 25.0126 4.06181 25.0126Z" fill="#5C1010"/>
<path fill-rule="evenodd" clip-rule="evenodd" d="M12.1038 16.3896H13.2214C13.2788 16.3896 13.3274 16.4344 13.3274 16.4897V17.5477C13.3274 17.6031 13.2788 17.6499 13.2214 17.6499H12.1038C12.0464 17.6499 12 17.6052 12 17.5477V16.4897C12 16.4344 12.0464 16.3896 12.1038 16.3896Z" fill="#5C1010"/>
<path fill-rule="evenodd" clip-rule="evenodd" d="M28.4888 16.2412H29.6064C29.6638 16.2412 29.7102 16.288 29.7102 16.3434V17.4014C29.7102 17.4568 29.6638 17.5015 29.6064 17.5015H28.4888C28.4314 17.5015 28.3828 17.4589 28.3828 17.4014V16.3434C28.3828 16.288 28.4314 16.2412 28.4888 16.2412Z" fill="#5C1010"/>
<path fill-rule="evenodd" clip-rule="evenodd" d="M6.26396 25.0126H7.38373C7.43894 25.0126 7.48753 25.0552 7.48753 25.1126V26.1707C7.48753 26.226 7.43894 26.2728 7.38373 26.2728H6.26396C6.20654 26.2728 6.16016 26.226 6.16016 26.1707V25.1126C6.16016 25.0573 6.20654 25.0126 6.26396 25.0126Z" fill="#5C1010"/>
<path fill-rule="evenodd" clip-rule="evenodd" d="M14.3079 16.3896H15.4277C15.4829 16.3896 15.5315 16.4344 15.5315 16.4897V17.5477C15.5315 17.6031 15.4829 17.6499 15.4277 17.6499H14.3079C14.2505 17.6499 14.2041 17.6052 14.2041 17.5477V16.4897C14.2041 16.4344 14.2505 16.3896 14.3079 16.3896Z" fill="#5C1010"/>
<path fill-rule="evenodd" clip-rule="evenodd" d="M30.691 16.2412H31.8085C31.866 16.2412 31.9123 16.288 31.9123 16.3434V17.4014C31.9123 17.4568 31.866 17.5015 31.8085 17.5015H30.691C30.6336 17.5015 30.585 17.4589 30.585 17.4014V16.3434C30.585 16.288 30.6336 16.2412 30.691 16.2412Z" fill="#5C1010"/>
<path fill-rule="evenodd" clip-rule="evenodd" d="M4.06181 27.0078H5.18158C5.2368 27.0078 5.28538 27.0525 5.28538 27.1079V28.1659C5.28538 28.2212 5.2368 28.2681 5.18158 28.2681H4.06181C4.00439 28.2681 3.95801 28.2234 3.95801 28.1659V27.1079C3.95801 27.0525 4.00439 27.0078 4.06181 27.0078Z" fill="#5C1010"/>
<path fill-rule="evenodd" clip-rule="evenodd" d="M12.1038 18.3849H13.2214C13.2788 18.3849 13.3274 18.4275 13.3274 18.4849V19.543C13.3274 19.5983 13.2788 19.6451 13.2214 19.6451H12.1038C12.0464 19.6451 12 19.5983 12 19.543V18.4849C12 18.4296 12.0464 18.3849 12.1038 18.3849Z" fill="#5C1010"/>
<path fill-rule="evenodd" clip-rule="evenodd" d="M28.4888 18.236H29.6064C29.6638 18.236 29.7102 18.2807 29.7102 18.3381V19.3962C29.7102 19.4515 29.6638 19.4962 29.6064 19.4962H28.4888C28.4314 19.4962 28.3828 19.4515 28.3828 19.3962V18.3381C28.3828 18.2828 28.4314 18.236 28.4888 18.236Z" fill="#5C1010"/>
<path fill-rule="evenodd" clip-rule="evenodd" d="M6.26396 27.0078H7.38373C7.43894 27.0078 7.48753 27.0525 7.48753 27.1079V28.1659C7.48753 28.2212 7.43894 28.2681 7.38373 28.2681H6.26396C6.20654 28.2681 6.16016 28.2234 6.16016 28.1659V27.1079C6.16016 27.0525 6.20654 27.0078 6.26396 27.0078Z" fill="#5C1010"/>
<path fill-rule="evenodd" clip-rule="evenodd" d="M14.3079 18.3849H15.4277C15.4829 18.3849 15.5315 18.4275 15.5315 18.4849V19.543C15.5315 19.5983 15.4829 19.6451 15.4277 19.6451H14.3079C14.2505 19.6451 14.2041 19.5983 14.2041 19.543V18.4849C14.2041 18.4296 14.2505 18.3849 14.3079 18.3849Z" fill="#5C1010"/>
<path fill-rule="evenodd" clip-rule="evenodd" d="M30.691 18.236H31.8085C31.866 18.236 31.9123 18.2807 31.9123 18.3381V19.3962C31.9123 19.4515 31.866 19.4962 31.8085 19.4962H30.691C30.6336 19.4962 30.585 19.4515 30.585 19.3962V18.3381C30.585 18.2828 30.6336 18.236 30.691 18.236Z" fill="#5C1010"/>
<path fill-rule="evenodd" clip-rule="evenodd" d="M4.06181 29.1075H5.18158C5.2368 29.1075 5.28538 29.1522 5.28538 29.2097V30.2677C5.28538 30.321 5.2368 30.3678 5.18158 30.3678H4.06181C4.00439 30.3678 3.95801 30.321 3.95801 30.2677V29.2097C3.95801 29.1544 4.00439 29.1075 4.06181 29.1075Z" fill="#5C1010"/>
<path fill-rule="evenodd" clip-rule="evenodd" d="M12.1038 20.4803H13.2214C13.2788 20.4803 13.3274 20.5272 13.3274 20.5825V21.6406C13.3274 21.6959 13.2788 21.7406 13.2214 21.7406H12.1038C12.0464 21.7406 12 21.698 12 21.6406V20.5825C12 20.5272 12.0464 20.4803 12.1038 20.4803Z" fill="#5C1010"/>
<path fill-rule="evenodd" clip-rule="evenodd" d="M28.4888 20.3333H29.6064C29.6638 20.3333 29.7102 20.3801 29.7102 20.4354V21.4935C29.7102 21.5467 29.6638 21.5935 29.6064 21.5935H28.4888C28.4314 21.5935 28.3828 21.5488 28.3828 21.4935V20.4354C28.3828 20.3801 28.4314 20.3333 28.4888 20.3333Z" fill="#5C1010"/>
<path fill-rule="evenodd" clip-rule="evenodd" d="M6.26396 29.1075H7.38373C7.43894 29.1075 7.48753 29.1522 7.48753 29.2097V30.2677C7.48753 30.321 7.43894 30.3678 7.38373 30.3678H6.26396C6.20654 30.3678 6.16016 30.321 6.16016 30.2677V29.2097C6.16016 29.1544 6.20654 29.1075 6.26396 29.1075Z" fill="#5C1010"/>
<path fill-rule="evenodd" clip-rule="evenodd" d="M14.3079 20.4803H15.4277C15.4829 20.4803 15.5315 20.5272 15.5315 20.5825V21.6406C15.5315 21.6959 15.4829 21.7406 15.4277 21.7406H14.3079C14.2505 21.7406 14.2041 21.698 14.2041 21.6406V20.5825C14.2041 20.5272 14.2505 20.4803 14.3079 20.4803Z" fill="#5C1010"/>
<path fill-rule="evenodd" clip-rule="evenodd" d="M30.691 20.3333H31.8085C31.866 20.3333 31.9123 20.3801 31.9123 20.4354V21.4935C31.9123 21.5467 31.866 21.5935 31.8085 21.5935H30.691C30.6336 21.5935 30.585 21.5488 30.585 21.4935V20.4354C30.585 20.3801 30.6336 20.3333 30.691 20.3333Z" fill="#5C1010"/>
<path fill-rule="evenodd" clip-rule="evenodd" d="M4.06181 31.0507H5.18158C5.2368 31.0507 5.28538 31.0975 5.28538 31.1528V32.2109C5.28538 32.2662 5.2368 32.3109 5.18158 32.3109H4.06181C4.00439 32.3109 3.95801 32.2662 3.95801 32.2109V31.1528C3.95801 31.0975 4.00439 31.0507 4.06181 31.0507Z" fill="#5C1010"/>
<path fill-rule="evenodd" clip-rule="evenodd" d="M12.1038 22.4292H13.2214C13.2788 22.4292 13.3274 22.4739 13.3274 22.5293V23.5873C13.3274 23.6426 13.2788 23.6895 13.2214 23.6895H12.1038C12.0464 23.6895 12 23.6448 12 23.5873V22.5293C12 22.4739 12.0464 22.4292 12.1038 22.4292Z" fill="#5C1010"/>
<path fill-rule="evenodd" clip-rule="evenodd" d="M28.4888 22.2803H29.6064C29.6638 22.2803 29.7102 22.325 29.7102 22.3825V23.4405C29.7102 23.4958 29.6638 23.5405 29.6064 23.5405H28.4888C28.4314 23.5405 28.3828 23.498 28.3828 23.4405V22.3825C28.3828 22.3271 28.4314 22.2803 28.4888 22.2803Z" fill="#5C1010"/>
<path fill-rule="evenodd" clip-rule="evenodd" d="M6.26396 31.0507H7.38373C7.43894 31.0507 7.48753 31.0975 7.48753 31.1528V32.2109C7.48753 32.2662 7.43894 32.3109 7.38373 32.3109H6.26396C6.20654 32.3109 6.16016 32.2662 6.16016 32.2109V31.1528C6.16016 31.0975 6.20654 31.0507 6.26396 31.0507Z" fill="#5C1010"/>
<path fill-rule="evenodd" clip-rule="evenodd" d="M14.3079 22.4292H15.4277C15.4829 22.4292 15.5315 22.4739 15.5315 22.5293V23.5873C15.5315 23.6426 15.4829 23.6895 15.4277 23.6895H14.3079C14.2505 23.6895 14.2041 23.6448 14.2041 23.5873V22.5293C14.2041 22.4739 14.2505 22.4292 14.3079 22.4292Z" fill="#5C1010"/>
<path fill-rule="evenodd" clip-rule="evenodd" d="M30.691 22.2803H31.8085C31.866 22.2803 31.9123 22.325 31.9123 22.3825V23.4405C31.9123 23.4958 31.866 23.5405 31.8085 23.5405H30.691C30.6336 23.5405 30.585 23.498 30.585 23.4405V22.3825C30.585 22.3271 30.6336 22.2803 30.691 22.2803Z" fill="#5C1010"/>
<path fill-rule="evenodd" clip-rule="evenodd" d="M4.06181 32.9952H5.18158C5.2368 32.9952 5.28538 33.0399 5.28538 33.0953V34.1533C5.28538 34.2087 5.2368 34.2555 5.18158 34.2555H4.06181C4.00439 34.2555 3.95801 34.2108 3.95801 34.1533V33.0953C3.95801 33.0399 4.00439 32.9952 4.06181 32.9952Z" fill="#5C1010"/>
<path fill-rule="evenodd" clip-rule="evenodd" d="M12.1038 24.368H13.2214C13.2788 24.368 13.3274 24.4106 13.3274 24.4681V25.5261C13.3274 25.5815 13.2788 25.6283 13.2214 25.6283H12.1038C12.0464 25.6283 12 25.5836 12 25.5261V24.4681C12 24.4149 12.0464 24.368 12.1038 24.368Z" fill="#5C1010"/>
<path fill-rule="evenodd" clip-rule="evenodd" d="M28.4888 24.2209H29.6064C29.6638 24.2209 29.7102 24.2635 29.7102 24.321V25.379C29.7102 25.4344 29.6638 25.4812 29.6064 25.4812H28.4888C28.4314 25.4812 28.3828 25.4365 28.3828 25.379V24.321C28.3828 24.2657 28.4314 24.2209 28.4888 24.2209Z" fill="#5C1010"/>
<path fill-rule="evenodd" clip-rule="evenodd" d="M6.26396 32.9952H7.38373C7.43894 32.9952 7.48753 33.0399 7.48753 33.0953V34.1533C7.48753 34.2087 7.43894 34.2555 7.38373 34.2555H6.26396C6.20654 34.2555 6.16016 34.2108 6.16016 34.1533V33.0953C6.16016 33.0399 6.20654 32.9952 6.26396 32.9952Z" fill="#5C1010"/>
<path fill-rule="evenodd" clip-rule="evenodd" d="M14.3079 24.368H15.4277C15.4829 24.368 15.5315 24.4106 15.5315 24.4681V25.5261C15.5315 25.5815 15.4829 25.6283 15.4277 25.6283H14.3079C14.2505 25.6283 14.2041 25.5836 14.2041 25.5261V24.4681C14.2041 24.4149 14.2505 24.368 14.3079 24.368Z" fill="#5C1010"/>
<path fill-rule="evenodd" clip-rule="evenodd" d="M30.691 24.2209H31.8085C31.866 24.2209 31.9123 24.2635 31.9123 24.321V25.379C31.9123 25.4344 31.866 25.4812 31.8085 25.4812H30.691C30.6336 25.4812 30.585 25.4365 30.585 25.379V24.321C30.585 24.2657 30.6336 24.2209 30.691 24.2209Z" fill="#5C1010"/>
<path fill-rule="evenodd" clip-rule="evenodd" d="M36.7007 28.8401H37.8183C37.8757 28.8401 37.9243 28.8869 37.9243 28.9423V30.0003C37.9243 30.0535 37.8757 30.1003 37.8183 30.1003H36.7007C36.6433 30.1003 36.5947 30.0578 36.5947 30.0003V28.9423C36.5947 28.8869 36.6433 28.8401 36.7007 28.8401Z" fill="#5C1010"/>
<path fill-rule="evenodd" clip-rule="evenodd" d="M4.06181 34.9823H5.18158C5.2368 34.9823 5.28538 35.0249 5.28538 35.0824V36.1404C5.28538 36.1957 5.2368 36.2426 5.18158 36.2426H4.06181C4.00439 36.2426 3.95801 36.1957 3.95801 36.1404V35.0824C3.95801 35.027 4.00439 34.9823 4.06181 34.9823Z" fill="#5C1010"/>
<path fill-rule="evenodd" clip-rule="evenodd" d="M12.1038 26.3589H13.2214C13.2788 26.3589 13.3274 26.4057 13.3274 26.4589V27.517C13.3274 27.5723 13.2788 27.6191 13.2214 27.6191H12.1038C12.0464 27.6191 12 27.5744 12 27.517V26.4589C12 26.4057 12.0464 26.3589 12.1038 26.3589Z" fill="#5C1010"/>
<path fill-rule="evenodd" clip-rule="evenodd" d="M28.4888 26.21H29.6064C29.6638 26.21 29.7102 26.2547 29.7102 26.31V27.368C29.7102 27.4234 29.6638 27.4702 29.6064 27.4702H28.4888C28.4314 27.4702 28.3828 27.4255 28.3828 27.368V26.31C28.3828 26.2547 28.4314 26.21 28.4888 26.21Z" fill="#5C1010"/>
<path fill-rule="evenodd" clip-rule="evenodd" d="M38.9026 28.8401H40.0202C40.0776 28.8401 40.1262 28.8869 40.1262 28.9423V30.0003C40.1262 30.0535 40.0776 30.1003 40.0202 30.1003H38.9026C38.8452 30.1003 38.7988 30.0578 38.7988 30.0003V28.9423C38.7988 28.8869 38.8452 28.8401 38.9026 28.8401Z" fill="#5C1010"/>
<path fill-rule="evenodd" clip-rule="evenodd" d="M6.26396 34.9823H7.38373C7.43894 34.9823 7.48753 35.0249 7.48753 35.0824V36.1404C7.48753 36.1957 7.43894 36.2426 7.38373 36.2426H6.26396C6.20654 36.2426 6.16016 36.1957 6.16016 36.1404V35.0824C6.16016 35.027 6.20654 34.9823 6.26396 34.9823Z" fill="#5C1010"/>
<path fill-rule="evenodd" clip-rule="evenodd" d="M14.3079 26.3589H15.4277C15.4829 26.3589 15.5315 26.4057 15.5315 26.4589V27.517C15.5315 27.5723 15.4829 27.6191 15.4277 27.6191H14.3079C14.2505 27.6191 14.2041 27.5744 14.2041 27.517V26.4589C14.2041 26.4057 14.2505 26.3589 14.3079 26.3589Z" fill="#5C1010"/>
<path fill-rule="evenodd" clip-rule="evenodd" d="M30.691 26.21H31.8085C31.866 26.21 31.9123 26.2547 31.9123 26.31V27.368C31.9123 27.4234 31.866 27.4702 31.8085 27.4702H30.691C30.6336 27.4702 30.585 27.4255 30.585 27.368V26.31C30.585 26.2547 30.6336 26.21 30.691 26.21Z" fill="#5C1010"/>
<path fill-rule="evenodd" clip-rule="evenodd" d="M36.7007 30.8101H37.8183C37.8757 30.8101 37.9243 30.8548 37.9243 30.9101V31.9681C37.9243 32.0235 37.8757 32.0703 37.8183 32.0703H36.7007C36.6433 32.0703 36.5947 32.0235 36.5947 31.9681V30.9101C36.5947 30.8569 36.6433 30.8101 36.7007 30.8101Z" fill="#5C1010"/>
<path fill-rule="evenodd" clip-rule="evenodd" d="M12.1038 28.4224H13.2214C13.2788 28.4224 13.3274 28.4692 13.3274 28.5224V29.5804C13.3274 29.6358 13.2788 29.6826 13.2214 29.6826H12.1038C12.0464 29.6826 12 29.6379 12 29.5804V28.5224C12 28.4692 12.0464 28.4224 12.1038 28.4224Z" fill="#5C1010"/>
<path fill-rule="evenodd" clip-rule="evenodd" d="M28.4888 28.2749H29.6064C29.6638 28.2749 29.7102 28.3196 29.7102 28.375V29.433C29.7102 29.4883 29.6638 29.5352 29.6064 29.5352H28.4888C28.4314 29.5352 28.3828 29.4905 28.3828 29.433V28.375C28.3828 28.3196 28.4314 28.2749 28.4888 28.2749Z" fill="#5C1010"/>
<path fill-rule="evenodd" clip-rule="evenodd" d="M38.9026 30.8101H40.0202C40.0776 30.8101 40.1262 30.8548 40.1262 30.9101V31.9681C40.1262 32.0235 40.0776 32.0703 40.0202 32.0703H38.9026C38.8452 32.0703 38.7988 32.0235 38.7988 31.9681V30.9101C38.7988 30.8569 38.8452 30.8101 38.9026 30.8101Z" fill="#5C1010"/>
<path fill-rule="evenodd" clip-rule="evenodd" d="M14.3079 28.4224H15.4277C15.4829 28.4224 15.5315 28.4692 15.5315 28.5224V29.5804C15.5315 29.6358 15.4829 29.6826 15.4277 29.6826H14.3079C14.2505 29.6826 14.2041 29.6379 14.2041 29.5804V28.5224C14.2041 28.4692 14.2505 28.4224 14.3079 28.4224Z" fill="#5C1010"/>
<path fill-rule="evenodd" clip-rule="evenodd" d="M30.691 28.2749H31.8085C31.866 28.2749 31.9123 28.3196 31.9123 28.375V29.433C31.9123 29.4883 31.866 29.5352 31.8085 29.5352H30.691C30.6336 29.5352 30.585 29.4905 30.585 29.433V28.375C30.585 28.3196 30.6336 28.2749 30.691 28.2749Z" fill="#5C1010"/>
<path fill-rule="evenodd" clip-rule="evenodd" d="M36.7007 32.8768H37.8183C37.8757 32.8768 37.9243 32.9237 37.9243 32.979V34.0349C37.9243 34.0903 37.8757 34.1371 37.8183 34.1371H36.7007C36.6433 34.1371 36.5947 34.0924 36.5947 34.0349V32.979C36.5947 32.9237 36.6433 32.8768 36.7007 32.8768Z" fill="#5C1010"/>
<path fill-rule="evenodd" clip-rule="evenodd" d="M12.1038 30.3956H13.2214C13.2788 30.3956 13.3274 30.4382 13.3274 30.4957V31.5537C13.3274 31.6091 13.2788 31.6559 13.2214 31.6559H12.1038C12.0464 31.6559 12 31.6091 12 31.5537V30.4957C12 30.4403 12.0464 30.3956 12.1038 30.3956Z" fill="#5C1010"/>
<path fill-rule="evenodd" clip-rule="evenodd" d="M28.4888 30.2448H29.6064C29.6638 30.2448 29.7102 30.2916 29.7102 30.3469V31.405C29.7102 31.4603 29.6638 31.505 29.6064 31.505H28.4888C28.4314 31.505 28.3828 31.4624 28.3828 31.405V30.3469C28.3828 30.2916 28.4314 30.2448 28.4888 30.2448Z" fill="#5C1010"/>
<path fill-rule="evenodd" clip-rule="evenodd" d="M38.9026 32.8768H40.0202C40.0776 32.8768 40.1262 32.9237 40.1262 32.979V34.0349C40.1262 34.0903 40.0776 34.1371 40.0202 34.1371H38.9026C38.8452 34.1371 38.7988 34.0924 38.7988 34.0349V32.979C38.7988 32.9237 38.8452 32.8768 38.9026 32.8768Z" fill="#5C1010"/>
<path fill-rule="evenodd" clip-rule="evenodd" d="M14.3079 30.3956H15.4277C15.4829 30.3956 15.5315 30.4382 15.5315 30.4957V31.5537C15.5315 31.6091 15.4829 31.6559 15.4277 31.6559H14.3079C14.2505 31.6559 14.2041 31.6091 14.2041 31.5537V30.4957C14.2041 30.4403 14.2505 30.3956 14.3079 30.3956Z" fill="#5C1010"/>
<path fill-rule="evenodd" clip-rule="evenodd" d="M30.691 30.2448H31.8085C31.866 30.2448 31.9123 30.2916 31.9123 30.3469V31.405C31.9123 31.4603 31.866 31.505 31.8085 31.505H30.691C30.6336 31.505 30.585 31.4624 30.585 31.405V30.3469C30.585 30.2916 30.6336 30.2448 30.691 30.2448Z" fill="#5C1010"/>
<path fill-rule="evenodd" clip-rule="evenodd" d="M36.7007 34.8644H37.8183C37.8757 34.8644 37.9243 34.9091 37.9243 34.9644V36.0225C37.9243 36.0778 37.8757 36.1246 37.8183 36.1246H36.7007C36.6433 36.1246 36.5947 36.0799 36.5947 36.0225V34.9644C36.5947 34.9112 36.6433 34.8644 36.7007 34.8644Z" fill="#5C1010"/>
<path fill-rule="evenodd" clip-rule="evenodd" d="M12.1038 32.4681H13.2214C13.2788 32.4681 13.3274 32.515 13.3274 32.5682V33.6262C13.3274 33.6816 13.2788 33.7284 13.2214 33.7284H12.1038C12.0464 33.7284 12 33.6837 12 33.6262V32.5682C12 32.515 12.0464 32.4681 12.1038 32.4681Z" fill="#5C1010"/>
<path fill-rule="evenodd" clip-rule="evenodd" d="M28.4888 32.3192H29.6064C29.6638 32.3192 29.7102 32.3639 29.7102 32.4193V33.4773C29.7102 33.5326 29.6638 33.5795 29.6064 33.5795H28.4888C28.4314 33.5795 28.3828 33.5348 28.3828 33.4773V32.4193C28.3828 32.3639 28.4314 32.3192 28.4888 32.3192Z" fill="#5C1010"/>
<path fill-rule="evenodd" clip-rule="evenodd" d="M38.9026 34.8644H40.0202C40.0776 34.8644 40.1262 34.9091 40.1262 34.9644V36.0225C40.1262 36.0778 40.0776 36.1246 40.0202 36.1246H38.9026C38.8452 36.1246 38.7988 36.0799 38.7988 36.0225V34.9644C38.7988 34.9112 38.8452 34.8644 38.9026 34.8644Z" fill="#5C1010"/>
<path fill-rule="evenodd" clip-rule="evenodd" d="M30.691 32.3192H31.8085C31.866 32.3192 31.9123 32.3639 31.9123 32.4193V33.4773C31.9123 33.5326 31.866 33.5795 31.8085 33.5795H30.691C30.6336 33.5795 30.585 33.5348 30.585 33.4773V32.4193C30.585 32.3639 30.6336 32.3192 30.691 32.3192Z" fill="#5C1010"/>
<path fill-rule="evenodd" clip-rule="evenodd" d="M12.1038 34.4457H13.2214C13.2788 34.4457 13.3274 34.4883 13.3274 34.5457V35.6038C13.3274 35.6591 13.2788 35.7059 13.2214 35.7059H12.1038C12.0464 35.7059 12 35.6612 12 35.6038V34.5457C12 34.4904 12.0464 34.4457 12.1038 34.4457Z" fill="#5C1010"/>
<path fill-rule="evenodd" clip-rule="evenodd" d="M28.4888 34.2948H29.6064C29.6638 34.2948 29.7102 34.3395 29.7102 34.397V35.455C29.7102 35.5104 29.6638 35.5551 29.6064 35.5551H28.4888C28.4314 35.5551 28.3828 35.5125 28.3828 35.455V34.397C28.3828 34.3416 28.4314 34.2948 28.4888 34.2948Z" fill="#5C1010"/>
<path fill-rule="evenodd" clip-rule="evenodd" d="M30.691 34.2948H31.8085C31.866 34.2948 31.9123 34.3395 31.9123 34.397V35.455C31.9123 35.5104 31.866 35.5551 31.8085 35.5551H30.691C30.6336 35.5551 30.585 35.5125 30.585 35.455V34.397C30.585 34.3416 30.6336 34.2948 30.691 34.2948Z" fill="#5C1010"/>
<path fill-rule="evenodd" clip-rule="evenodd" d="M28.4888 40.276H29.6064C29.6638 40.276 29.7102 40.3228 29.7102 40.3782V41.4362C29.7102 41.4916 29.6638 41.5363 29.6064 41.5363H28.4888C28.4314 41.5363 28.3828 41.4916 28.3828 41.4362V40.3782C28.3828 40.3228 28.4314 40.276 28.4888 40.276Z" fill="#5C1010"/>
<path fill-rule="evenodd" clip-rule="evenodd" d="M28.4888 38.2632H29.6064C29.6638 38.2632 29.7102 38.3079 29.7102 38.3654V39.4234C29.7102 39.4766 29.6638 39.5234 29.6064 39.5234H28.4888C28.4314 39.5234 28.3828 39.4766 28.3828 39.4234V38.3654C28.3828 38.31 28.4314 38.2632 28.4888 38.2632Z" fill="#5C1010"/>
<path fill-rule="evenodd" clip-rule="evenodd" d="M28.4888 36.2719H29.6064C29.6638 36.2719 29.7102 36.3166 29.7102 36.374V37.4321C29.7102 37.4853 29.6638 37.5321 29.6064 37.5321H28.4888C28.4314 37.5321 28.3828 37.4853 28.3828 37.4321V36.374C28.3828 36.3187 28.4314 36.2719 28.4888 36.2719Z" fill="#5C1010"/>
<path fill-rule="evenodd" clip-rule="evenodd" d="M30.691 38.2632H31.8085C31.866 38.2632 31.9123 38.3079 31.9123 38.3654V39.4234C31.9123 39.4766 31.866 39.5234 31.8085 39.5234H30.691C30.6336 39.5234 30.585 39.4766 30.585 39.4234V38.3654C30.585 38.31 30.6336 38.2632 30.691 38.2632Z" fill="#5C1010"/>
<path fill-rule="evenodd" clip-rule="evenodd" d="M30.691 36.2719H31.8085C31.866 36.2719 31.9123 36.3166 31.9123 36.374V37.4321C31.9123 37.4853 31.866 37.5321 31.8085 37.5321H30.691C30.6336 37.5321 30.585 37.4853 30.585 37.4321V36.374C30.585 36.3187 30.6336 36.2719 30.691 36.2719Z" fill="#5C1010"/>
<path fill-rule="evenodd" clip-rule="evenodd" d="M20.3277 11.803H21.4453C21.5027 11.803 21.5513 11.8456 21.5513 11.903V12.9611C21.5513 13.0164 21.5027 13.0632 21.4453 13.0632H20.3277C20.2703 13.0632 20.2217 13.0164 20.2217 12.9611V11.903C20.2217 11.8477 20.2703 11.803 20.3277 11.803Z" fill="#5C1010"/>
<path fill-rule="evenodd" clip-rule="evenodd" d="M22.5308 11.803H23.6484C23.7058 11.803 23.7544 11.8456 23.7544 11.903V12.9611C23.7544 13.0164 23.7058 13.0632 23.6484 13.0632H22.5308C22.4734 13.0632 22.4248 13.0164 22.4248 12.9611V11.903C22.4248 11.8477 22.4734 11.803 22.5308 11.803Z" fill="#5C1010"/>
<path fill-rule="evenodd" clip-rule="evenodd" d="M20.3277 13.8002H21.4453C21.5027 13.8002 21.5513 13.8427 21.5513 13.9002V14.9582C21.5513 15.0136 21.5027 15.0604 21.4453 15.0604H20.3277C20.2703 15.0604 20.2217 15.0157 20.2217 14.9582V13.9002C20.2217 13.8449 20.2703 13.8002 20.3277 13.8002Z" fill="#5C1010"/>
<path fill-rule="evenodd" clip-rule="evenodd" d="M22.5308 13.8002H23.6484C23.7058 13.8002 23.7544 13.8427 23.7544 13.9002V14.9582C23.7544 15.0136 23.7058 15.0604 23.6484 15.0604H22.5308C22.4734 15.0604 22.4248 15.0157 22.4248 14.9582V13.9002C22.4248 13.8449 22.4734 13.8002 22.5308 13.8002Z" fill="#5C1010"/>
<path fill-rule="evenodd" clip-rule="evenodd" d="M20.3277 15.8979H21.4453C21.5027 15.8979 21.5513 15.9427 21.5513 16.0001V17.0582C21.5513 17.1135 21.5027 17.1582 21.4453 17.1582H20.3277C20.2703 17.1582 20.2217 17.1135 20.2217 17.0582V16.0001C20.2217 15.9448 20.2703 15.8979 20.3277 15.8979Z" fill="#5C1010"/>
<path fill-rule="evenodd" clip-rule="evenodd" d="M22.5308 15.8979H23.6484C23.7058 15.8979 23.7544 15.9427 23.7544 16.0001V17.0582C23.7544 17.1135 23.7058 17.1582 23.6484 17.1582H22.5308C22.4734 17.1582 22.4248 17.1135 22.4248 17.0582V16.0001C22.4248 15.9448 22.4734 15.8979 22.5308 15.8979Z" fill="#5C1010"/>
<path fill-rule="evenodd" clip-rule="evenodd" d="M20.3277 17.8468H21.4453C21.5027 17.8468 21.5513 17.8915 21.5513 17.9469V19.0049C21.5513 19.0602 21.5027 19.1071 21.4453 19.1071H20.3277C20.2703 19.1071 20.2217 19.0624 20.2217 19.0049V17.9469C20.2217 17.8915 20.2703 17.8468 20.3277 17.8468Z" fill="#5C1010"/>
<path fill-rule="evenodd" clip-rule="evenodd" d="M22.5308 17.8468H23.6484C23.7058 17.8468 23.7544 17.8915 23.7544 17.9469V19.0049C23.7544 19.0602 23.7058 19.1071 23.6484 19.1071H22.5308C22.4734 19.1071 22.4248 19.0624 22.4248 19.0049V17.9469C22.4248 17.8915 22.4734 17.8468 22.5308 17.8468Z" fill="#5C1010"/>
<path fill-rule="evenodd" clip-rule="evenodd" d="M20.3277 19.7856H21.4453C21.5027 19.7856 21.5513 19.8282 21.5513 19.8857V20.9437C21.5513 20.9991 21.5027 21.0459 21.4453 21.0459H20.3277C20.2703 21.0459 20.2217 21.0012 20.2217 20.9437V19.8857C20.2217 19.8325 20.2703 19.7856 20.3277 19.7856Z" fill="#5C1010"/>
<path fill-rule="evenodd" clip-rule="evenodd" d="M22.5308 19.7856H23.6484C23.7058 19.7856 23.7544 19.8282 23.7544 19.8857V20.9437C23.7544 20.9991 23.7058 21.0459 23.6484 21.0459H22.5308C22.4734 21.0459 22.4248 21.0012 22.4248 20.9437V19.8857C22.4248 19.8325 22.4734 19.7856 22.5308 19.7856Z" fill="#5C1010"/>
<path fill-rule="evenodd" clip-rule="evenodd" d="M20.3277 21.7722H21.4453C21.5027 21.7722 21.5513 21.8148 21.5513 21.8723V22.9303C21.5513 22.9856 21.5027 23.0325 21.4453 23.0325H20.3277C20.2703 23.0325 20.2217 22.9856 20.2217 22.9303V21.8723C20.2217 21.8169 20.2703 21.7722 20.3277 21.7722Z" fill="#5C1010"/>
<path fill-rule="evenodd" clip-rule="evenodd" d="M22.5308 21.7722H23.6484C23.7058 21.7722 23.7544 21.8148 23.7544 21.8723V22.9303C23.7544 22.9856 23.7058 23.0325 23.6484 23.0325H22.5308C22.4734 23.0325 22.4248 22.9856 22.4248 22.9303V21.8723C22.4248 21.8169 22.4734 21.7722 22.5308 21.7722Z" fill="#5C1010"/>
<path fill-rule="evenodd" clip-rule="evenodd" d="M20.3277 23.8352H21.4453C21.5027 23.8352 21.5513 23.882 21.5513 23.9353V24.9933C21.5513 25.0486 21.5027 25.0955 21.4453 25.0955H20.3277C20.2703 25.0955 20.2217 25.0508 20.2217 24.9933V23.9353C20.2217 23.882 20.2703 23.8352 20.3277 23.8352Z" fill="#5C1010"/>
<path fill-rule="evenodd" clip-rule="evenodd" d="M22.5308 23.8352H23.6484C23.7058 23.8352 23.7544 23.882 23.7544 23.9353V24.9933C23.7544 25.0486 23.7058 25.0955 23.6484 25.0955H22.5308C22.4734 25.0955 22.4248 25.0508 22.4248 24.9933V23.9353C22.4248 23.882 22.4734 23.8352 22.5308 23.8352Z" fill="#5C1010"/>
<path fill-rule="evenodd" clip-rule="evenodd" d="M20.3277 25.809H21.4453C21.5027 25.809 21.5513 25.8515 21.5513 25.909V26.967C21.5513 27.0224 21.5027 27.0692 21.4453 27.0692H20.3277C20.2703 27.0692 20.2217 27.0224 20.2217 26.967V25.909C20.2217 25.8537 20.2703 25.809 20.3277 25.809Z" fill="#5C1010"/>
<path fill-rule="evenodd" clip-rule="evenodd" d="M22.5308 25.809H23.6484C23.7058 25.809 23.7544 25.8515 23.7544 25.909V26.967C23.7544 27.0224 23.7058 27.0692 23.6484 27.0692H22.5308C22.4734 27.0692 22.4248 27.0224 22.4248 26.967V25.909C22.4248 25.8537 22.4734 25.809 22.5308 25.809Z" fill="#5C1010"/>
<path fill-rule="evenodd" clip-rule="evenodd" d="M20.3277 27.8838H21.4453C21.5027 27.8838 21.5513 27.9285 21.5513 27.9838V29.0419C21.5513 29.0972 21.5027 29.144 21.4453 29.144H20.3277C20.2703 29.144 20.2217 29.0972 20.2217 29.0419V27.9838C20.2217 27.9285 20.2703 27.8838 20.3277 27.8838Z" fill="#5C1010"/>
<path fill-rule="evenodd" clip-rule="evenodd" d="M22.5308 27.8838H23.6484C23.7058 27.8838 23.7544 27.9285 23.7544 27.9838V29.0419C23.7544 29.0972 23.7058 29.144 23.6484 29.144H22.5308C22.4734 29.144 22.4248 29.0972 22.4248 29.0419V27.9838C22.4248 27.9285 22.4734 27.8838 22.5308 27.8838Z" fill="#5C1010"/>
<path fill-rule="evenodd" clip-rule="evenodd" d="M20.3277 29.8608H21.4453C21.5027 29.8608 21.5513 29.9034 21.5513 29.9609V31.0189C21.5513 31.0743 21.5027 31.1211 21.4453 31.1211H20.3277C20.2703 31.1211 20.2217 31.0764 20.2217 31.0189V29.9609C20.2217 29.9055 20.2703 29.8608 20.3277 29.8608Z" fill="#5C1010"/>
<path fill-rule="evenodd" clip-rule="evenodd" d="M22.5308 29.8608H23.6484C23.7058 29.8608 23.7544 29.9034 23.7544 29.9609V31.0189C23.7544 31.0743 23.7058 31.1211 23.6484 31.1211H22.5308C22.4734 31.1211 22.4248 31.0764 22.4248 31.0189V29.9609C22.4248 29.9055 22.4734 29.8608 22.5308 29.8608Z" fill="#5C1010"/>
<path fill-rule="evenodd" clip-rule="evenodd" d="M20.3277 31.8369H21.4453C21.5027 31.8369 21.5513 31.8816 21.5513 31.9391V32.9971C21.5513 33.0525 21.5027 33.0972 21.4453 33.0972H20.3277C20.2703 33.0972 20.2217 33.0525 20.2217 32.9971V31.9391C20.2217 31.8837 20.2703 31.8369 20.3277 31.8369Z" fill="#5C1010"/>
<path fill-rule="evenodd" clip-rule="evenodd" d="M22.5308 31.8369H23.6484C23.7058 31.8369 23.7544 31.8816 23.7544 31.9391V32.9971C23.7544 33.0525 23.7058 33.0972 23.6484 33.0972H22.5308C22.4734 33.0972 22.4248 33.0525 22.4248 32.9971V31.9391C22.4248 31.8837 22.4734 31.8369 22.5308 31.8369Z" fill="#5C1010"/>
<path fill-rule="evenodd" clip-rule="evenodd" d="M22.5308 33.8837H23.6484C23.7058 33.8837 23.7544 33.9305 23.7544 33.9859V35.0439C23.7544 35.0971 23.7058 35.1439 23.6484 35.1439H22.5308C22.4734 35.1439 22.4248 35.0992 22.4248 35.0439V33.9859C22.4248 33.9305 22.4734 33.8837 22.5308 33.8837Z" fill="#5C1010"/>
<mask id="mask0_225_12" style="mask-type:luminance" maskUnits="userSpaceOnUse" x="0" y="0" width="44" height="55">
<path d="M0 0.751465H44V54.2486H0V0.751465Z" fill="white"/>
</mask>
<g mask="url(#mask0_225_12)">
<path fill-rule="evenodd" clip-rule="evenodd" d="M39.1246 22.6679L39.2019 22.6978C39.7607 22.9 40.4387 23.0256 40.9577 23.2534C41.1786 23.3492 41.3221 23.5514 41.3332 23.792V26.2784L41.0284 26.2018C39.7805 25.8952 39.1157 24.9607 38.9236 23.8643C38.8242 24.6307 38.8772 25.6185 38.8838 26.0762C38.9037 27.3152 40.0102 28.2987 41.1653 28.6606L41.3354 28.7138V35.2854L43.7671 33.1332L43.756 23.6962C43.756 23.6429 43.7317 23.5982 43.6876 23.5727C42.2233 23.3513 40.1427 22.7339 38.9148 21.7249L38.9346 22.5956C38.981 22.6147 39.0296 22.6339 39.0782 22.653L39.129 22.6722L39.1246 22.6679ZM0.0100211 33.0268L2.66036 35.36V23.8643C2.67361 23.6259 2.81496 23.4258 3.03582 23.3258C3.67411 23.0448 4.42504 22.8766 5.11192 22.6062L5.13401 21.595C3.85301 22.6381 1.57151 23.3215 0.0762795 23.5684C0.0343163 23.594 0.0078125 23.6387 0.0078125 23.694V33.0268H0.0100211ZM8.66558 34.2594L11.1083 36.1434L11.0995 15.034C11.0995 14.7892 11.243 14.5699 11.4749 14.4699C12.1486 14.1718 12.8266 13.8248 13.4693 13.4672V11.6875C12.2965 13.0627 10.4435 14.2165 8.73846 14.7062C8.68987 14.7338 8.65895 14.7786 8.65895 14.836L8.66558 34.2615V34.2594ZM16.6806 9.68217V30.8958L19.1675 32.8096V10.9062H24.9364V36.0305L27.4233 34.1189L27.4255 14.1314L27.4189 5.84817C27.4278 5.76514 27.4167 5.58206 27.3394 5.54587C25.8596 4.87317 23.7416 3.54053 22.9244 2.18447C22.6549 1.73742 22.3303 1.23928 22.0564 0.753906C21.787 1.23502 21.4314 1.77361 21.1818 2.18447C20.3624 3.54266 18.2443 4.8753 16.7668 5.54587C16.6895 5.58206 16.6784 5.76514 16.6873 5.84817L16.6851 9.68429H16.6806V9.68217ZM22.2441 3.64697L24.762 5.13288C24.8702 5.19675 24.9342 5.30745 24.9342 5.42879V8.39423H19.1697V5.42879C19.1697 5.30745 19.2338 5.19675 19.342 5.13288L21.8598 3.64697C21.9791 3.57885 22.1227 3.57885 22.2419 3.64697H22.2441ZM27.3924 38.3701L24.985 40.2669V48.0775L22.0144 50.9259L19.2316 48.2542V37.195L14.5096 33.4525V36.5329L16.6851 38.2573V44.9865L8.66779 38.4936V41.5335L16.6851 48.0285V49.0866L22.0608 54.2468L27.4233 49.0993V47.8902L35.3125 41.4633C35.3501 41.4335 35.3677 41.3973 35.3677 41.3504L35.3788 14.9318C35.3788 14.8744 35.3501 14.8275 35.2993 14.802C33.5743 14.2825 31.6396 13.084 30.4381 11.6811V13.4608C31.0808 13.8206 31.7566 14.1655 32.4325 14.4635C32.6644 14.5657 32.8079 14.7807 32.8079 15.0276L32.7969 40.1264C32.7969 40.3137 32.7152 40.4798 32.5694 40.6011L27.3924 44.8204V38.368V38.3701Z" fill="#5C1010"/>
</g>
<path d="M65.0965 36.6979C65.0965 36.2828 65.1621 35.9061 65.2905 35.568C65.4217 35.2298 65.5957 34.9274 65.8153 34.6552C66.0378 34.383 66.2888 34.1439 66.5769 33.9349C66.865 33.7287 67.1645 33.5445 67.4811 33.3823C67.1416 33.0332 66.8678 32.662 66.6596 32.2716C66.4485 31.8785 66.3458 31.4688 66.3458 31.0289C66.3458 30.1162 66.6368 29.4014 67.2186 28.89C67.7977 28.3814 68.5649 28.1257 69.5148 28.1257C69.9996 28.1257 70.4303 28.189 70.8097 28.3209C71.1891 28.4501 71.5028 28.6288 71.751 28.8598C71.9991 29.088 72.1874 29.3574 72.3157 29.6681C72.4469 29.976 72.5097 30.3059 72.5097 30.6551C72.5097 31.0042 72.4526 31.3286 72.3328 31.6338C72.2159 31.939 72.0533 32.2194 71.8508 32.4751C71.6483 32.7307 71.4144 32.9644 71.1491 33.1761C70.8839 33.3906 70.5986 33.5775 70.2963 33.7397L72.6152 35.9914C72.7721 35.7082 72.9033 35.3893 73.0031 35.0374C73.103 34.6827 73.1828 34.3391 73.2399 34.0009L74.9484 34.2153C74.8914 34.6497 74.7744 35.1308 74.5919 35.656C74.4122 36.1866 74.1726 36.6869 73.8816 37.1653C74.2524 37.5694 74.6118 37.9846 74.957 38.4162C75.3021 38.8451 75.5873 39.274 75.8127 39.6946H73.6791C73.565 39.5104 73.4224 39.3097 73.2456 39.0898C73.0716 38.8726 72.8862 38.6746 72.6951 38.4849C72.2302 38.8891 71.6996 39.2162 71.1035 39.4664C70.5045 39.7166 69.8257 39.8403 69.0726 39.8403C68.3139 39.8403 67.6836 39.7414 67.173 39.5489C66.6681 39.351 66.2574 39.1035 65.9465 38.7984C65.6356 38.4932 65.416 38.1578 65.2848 37.7866C65.1564 37.4182 65.0908 37.0526 65.0908 36.6924L65.0965 36.6979ZM67.0618 36.566C67.0618 36.7502 67.096 36.9399 67.1702 37.1378C67.2443 37.333 67.3613 37.5145 67.5267 37.6822C67.6921 37.8499 67.9061 37.9901 68.1713 38.1C68.4366 38.2073 68.7532 38.2622 69.1268 38.2622C69.6346 38.2622 70.0938 38.1853 70.5074 38.0341C70.9209 37.8801 71.2689 37.6657 71.5656 37.3797L68.5849 34.4573C68.4166 34.5453 68.2398 34.6497 68.0601 34.7679C67.8804 34.8862 67.7149 35.0319 67.5695 35.1996C67.4212 35.3673 67.3014 35.5625 67.2044 35.7879C67.1074 36.0134 67.0589 36.269 67.0589 36.5632L67.0618 36.566ZM70.7355 30.7403C70.7355 30.4241 70.63 30.1547 70.4161 29.9347C70.1993 29.7093 69.8913 29.5993 69.4834 29.5993C69.0555 29.5993 68.7275 29.7231 68.5022 29.9732C68.2769 30.2234 68.1656 30.5396 68.1656 30.919C68.1656 31.2351 68.2569 31.5458 68.4366 31.8565C68.6163 32.1671 68.8644 32.4641 69.181 32.7445C69.395 32.6373 69.5975 32.519 69.7829 32.3871C69.9683 32.2579 70.1337 32.1094 70.2735 31.9472C70.4161 31.785 70.5273 31.6035 70.6129 31.4083C70.6985 31.2132 70.7412 30.9905 70.7412 30.7375L70.7355 30.7403Z" fill="#5C1010"/>
<path d="M86.5157 39.9448C85.6343 39.9448 84.8442 39.8156 84.1482 39.5544C83.4494 39.2932 82.8533 38.9083 82.3684 38.4025C81.8835 37.8993 81.5127 37.278 81.2531 36.5522C80.9936 35.8209 80.8652 34.9851 80.8652 34.0394C80.8652 33.0909 81.0136 32.2551 81.313 31.5238C81.6125 30.7953 82.0204 30.1767 82.5395 29.6736C83.0587 29.1677 83.6691 28.7828 84.3679 28.5216C85.0667 28.2604 85.8168 28.1312 86.6183 28.1312C87.1061 28.1312 87.5453 28.167 87.939 28.2357C88.3354 28.3072 88.6806 28.3869 88.9715 28.4721C89.2653 28.5601 89.5077 28.6508 89.6988 28.7498C89.8899 28.846 90.0269 28.9175 90.1067 28.9615L89.4792 30.644C89.2082 30.4818 88.8203 30.3251 88.3155 30.1767C87.8163 30.031 87.2715 29.9567 86.6839 29.9567C86.1762 29.9567 85.7028 30.042 85.2606 30.2097C84.8214 30.3774 84.4392 30.6303 84.1169 30.9685C83.7974 31.3066 83.5464 31.73 83.3639 32.2414C83.1842 32.75 83.0929 33.3438 83.0929 34.0174C83.0929 34.6167 83.1613 35.1666 83.304 35.6642C83.4466 36.1646 83.6634 36.5989 83.9543 36.9646C84.2509 37.3275 84.6217 37.6107 85.0724 37.8141C85.5231 38.0148 86.065 38.1138 86.6982 38.1138C87.4569 38.1138 88.0702 38.0396 88.5437 37.8911C89.0171 37.7454 89.3851 37.6052 89.6418 37.476L90.218 39.1558C90.0811 39.2437 89.8985 39.329 89.6675 39.4169C89.4364 39.5049 89.1626 39.5874 88.8431 39.6699C88.5294 39.7523 88.1729 39.8183 87.7764 39.8651C87.3828 39.9145 86.9578 39.9393 86.5071 39.9393L86.5157 39.9448Z" fill="#5C1010"/>
<path d="M99.7919 35.425C99.7919 36.0986 99.6892 36.7144 99.4867 37.267C99.2842 37.8224 98.9961 38.2952 98.6253 38.6884C98.2516 39.0788 97.801 39.3839 97.2761 39.6011C96.7542 39.8211 96.1752 39.9283 95.5419 39.9283C94.9116 39.9283 94.3326 39.8211 93.8134 39.6011C93.2972 39.3839 92.8522 39.0788 92.4757 38.6884C92.1049 38.2952 91.814 37.8224 91.6057 37.267C91.3947 36.7144 91.292 36.0986 91.292 35.425C91.292 34.7514 91.3947 34.1384 91.6057 33.5885C91.814 33.0414 92.1049 32.5685 92.4843 32.1781C92.8636 31.785 93.3114 31.4853 93.8334 31.2709C94.3497 31.0592 94.923 30.9547 95.5419 30.9547C96.1637 30.9547 96.7342 31.0592 97.259 31.2709C97.7839 31.4853 98.2317 31.785 98.6053 32.1781C98.979 32.5685 99.2699 33.0386 99.4781 33.5885C99.6892 34.1384 99.7919 34.7514 99.7919 35.425ZM97.6897 35.425C97.6897 34.5755 97.5015 33.9047 97.125 33.4071C96.7456 32.9122 96.2208 32.6675 95.5419 32.6675C94.8631 32.6675 94.3354 32.9122 93.9589 33.4071C93.5824 33.9019 93.3913 34.5755 93.3913 35.425C93.3913 36.2855 93.5795 36.9646 93.9589 37.4622C94.3354 37.9626 94.8631 38.2128 95.5419 38.2128C96.2208 38.2128 96.7456 37.9626 97.125 37.4622C97.5015 36.9646 97.6897 36.2828 97.6897 35.425Z" fill="#5C1010"/>
<path d="M101.909 31.4414C102.303 31.3341 102.816 31.2297 103.449 31.1334C104.083 31.0317 104.781 30.985 105.552 30.985C106.273 30.985 106.878 31.0812 107.363 31.2709C107.848 31.4606 108.236 31.73 108.524 32.0737C108.812 32.4173 109.017 32.827 109.134 33.3136C109.251 33.7975 109.311 34.3281 109.311 34.9054V39.7029H107.263V35.2133C107.263 34.757 107.232 34.3666 107.169 34.0477C107.106 33.726 107.006 33.4648 106.864 33.2614C106.724 33.0607 106.533 32.9122 106.29 32.8215C106.048 32.728 105.751 32.684 105.4 32.684C105.141 32.684 104.87 32.7005 104.588 32.7308C104.305 32.7665 104.094 32.7912 103.96 32.8132V39.7029H101.912V31.4441L101.909 31.4414Z" fill="#5C1010"/>
<path d="M114.032 38.2815C114.574 38.2815 114.97 38.2183 115.215 38.0945C115.464 37.9681 115.589 37.7536 115.589 37.4485C115.589 37.1653 115.455 36.9316 115.19 36.7474C114.924 36.5632 114.488 36.3625 113.878 36.1426C113.507 36.0133 113.165 35.8731 112.854 35.7247C112.543 35.5762 112.275 35.4058 112.049 35.2106C111.821 35.0154 111.644 34.7789 111.516 34.5013C111.385 34.2236 111.322 33.8854 111.322 33.4813C111.322 32.6977 111.621 32.0819 112.218 31.6283C112.814 31.1774 113.629 30.9547 114.653 30.9547C115.173 30.9547 115.672 30.9987 116.145 31.0922C116.619 31.1856 116.972 31.2736 117.212 31.3616L116.841 32.9617C116.613 32.8654 116.328 32.7747 115.977 32.6922C115.626 32.6098 115.221 32.5685 114.756 32.5685C114.34 32.5685 114 32.6373 113.741 32.7747C113.481 32.9094 113.35 33.1211 113.35 33.4016C113.35 33.5445 113.378 33.6682 113.427 33.7755C113.478 33.8854 113.567 33.9871 113.689 34.0779C113.815 34.1713 113.98 34.2621 114.183 34.3555C114.385 34.449 114.633 34.5425 114.927 34.6442C115.415 34.8174 115.826 34.9906 116.162 35.1583C116.502 35.326 116.781 35.5157 117.001 35.7274C117.221 35.9419 117.38 36.1838 117.483 36.456C117.583 36.7282 117.637 37.0553 117.637 37.4347C117.637 38.2512 117.323 38.8698 116.696 39.2877C116.068 39.7056 115.175 39.9145 114.012 39.9145C113.233 39.9145 112.606 39.8513 112.132 39.7276C111.656 39.6011 111.325 39.4994 111.131 39.4252L111.487 37.7784C111.793 37.8993 112.158 38.0121 112.583 38.122C113.008 38.2293 113.487 38.2842 114.029 38.2842L114.032 38.2815Z" fill="#5C1010"/>
<path d="M126.816 39.4389C126.422 39.5406 125.909 39.6396 125.276 39.7413C124.645 39.843 123.949 39.898 123.19 39.898C122.48 39.898 121.887 39.7991 121.405 39.6039C120.926 39.4087 120.541 39.1365 120.253 38.7901C119.965 38.4409 119.759 38.0258 119.634 37.5392C119.511 37.058 119.448 36.5274 119.448 35.9501V31.1664H121.496V35.6367C121.496 36.5522 121.636 37.2038 121.913 37.5969C122.189 37.99 122.671 38.1852 123.359 38.1852C123.607 38.1852 123.869 38.1742 124.146 38.1495C124.423 38.1275 124.631 38.1028 124.765 38.0698V31.1664H126.813V39.4417L126.816 39.4389Z" fill="#5C1010"/>
<path d="M132.506 39.8624C131.896 39.8514 131.394 39.7882 130.992 39.6672C130.592 39.549 130.273 39.3758 130.033 39.1531C129.799 38.9304 129.631 38.6527 129.537 38.3201C129.44 37.9902 129.392 37.6108 129.392 37.1874V27.3643L131.44 27.0371V36.8135C131.44 37.0527 131.46 37.2534 131.499 37.4183C131.537 37.5833 131.608 37.718 131.711 37.8362C131.813 37.9489 131.95 38.0369 132.127 38.0974C132.301 38.1579 132.523 38.2018 132.794 38.2348L132.506 39.8651V39.8624Z" fill="#5C1010"/>
<path d="M134.351 28.9148L136.399 28.5876V31.1665H139.55V32.8133H136.399V36.2911C136.399 36.9756 136.51 37.465 136.738 37.7592C136.963 38.0506 137.348 38.1991 137.89 38.1991C138.261 38.1991 138.592 38.1633 138.88 38.0863C139.168 38.0094 139.396 37.9379 139.567 37.8719L139.907 39.4417C139.67 39.5407 139.356 39.6397 138.974 39.7414C138.592 39.8431 138.141 39.8981 137.619 39.8981C136.989 39.8981 136.458 39.8156 136.036 39.6534C135.611 39.4885 135.275 39.252 135.029 38.9441C134.781 38.6334 134.604 38.2595 134.505 37.8197C134.402 37.377 134.351 36.8767 134.351 36.3103V28.9148Z" fill="#5C1010"/>
<path d="M143.596 39.7028H141.548V31.1664H143.596V39.7028ZM143.818 28.6701C143.818 29.0385 143.693 29.3354 143.445 29.5498C143.199 29.7698 142.903 29.877 142.566 29.877C142.215 29.877 141.916 29.7698 141.665 29.5498C141.419 29.3326 141.294 29.0385 141.294 28.6701C141.294 28.2879 141.419 27.991 141.665 27.7711C141.913 27.5539 142.215 27.4467 142.566 27.4467C142.903 27.4467 143.196 27.5539 143.445 27.7711C143.693 27.991 143.818 28.2879 143.818 28.6701Z" fill="#5C1010"/>
<path d="M146.205 31.4414C146.599 31.3341 147.112 31.2297 147.745 31.1334C148.379 31.0317 149.077 30.985 149.847 30.985C150.569 30.985 151.171 31.0812 151.659 31.2709C152.144 31.4606 152.532 31.73 152.82 32.0737C153.108 32.4173 153.313 32.827 153.43 33.3136C153.547 33.7975 153.607 34.3281 153.607 34.9054V39.7029H151.559V35.2133C151.559 34.757 151.525 34.3666 151.465 34.0477C151.402 33.726 151.302 33.4648 151.16 33.2614C151.02 33.0607 150.829 32.9122 150.586 32.8215C150.344 32.728 150.047 32.684 149.696 32.684C149.437 32.684 149.166 32.7005 148.883 32.7308C148.598 32.7665 148.39 32.7912 148.256 32.8132V39.7029H146.208V31.4441L146.205 31.4414Z" fill="#5C1010"/>
<path d="M157.716 35.2133C157.716 36.0518 157.905 36.6621 158.287 37.0498C158.663 37.4347 159.151 37.6271 159.75 37.6271C160.078 37.6271 160.383 37.5859 160.674 37.4979C160.962 37.4099 161.193 37.3082 161.373 37.1872V32.7664C161.228 32.7307 161.048 32.7032 160.831 32.6757C160.617 32.6482 160.346 32.6345 160.018 32.6345C159.274 32.6345 158.703 32.8709 158.31 33.3438C157.913 33.8194 157.716 34.4407 157.716 35.2133ZM163.421 38.8341C163.421 40.1949 163.062 41.1902 162.346 41.8225C161.63 42.4548 160.532 42.7682 159.051 42.7682C158.509 42.7682 157.982 42.727 157.468 42.639C156.958 42.5511 156.49 42.4356 156.073 42.2954L156.444 40.6128C156.795 40.7558 157.192 40.8685 157.637 40.9565C158.082 41.0445 158.566 41.0884 159.086 41.0884C159.91 41.0884 160.497 40.9262 160.845 40.5991C161.196 40.2719 161.37 39.7908 161.37 39.1475V38.8203C161.168 38.9165 160.9 39.0183 160.566 39.1145C160.235 39.2135 159.853 39.2602 159.422 39.2602C158.86 39.2602 158.341 39.1722 157.873 38.999C157.406 38.8258 157.003 38.5701 156.67 38.232C156.339 37.8938 156.079 37.4759 155.894 36.9701C155.708 36.4642 155.614 35.8786 155.614 35.2133C155.614 34.5947 155.714 34.0229 155.911 33.5005C156.108 32.9781 156.396 32.5328 156.775 32.1644C157.152 31.7932 157.611 31.5045 158.153 31.2983C158.695 31.0894 159.311 30.9877 159.998 30.9877C160.663 30.9877 161.299 31.0344 161.895 31.1361C162.494 31.2324 163.002 31.3368 163.418 31.444V38.8368L163.421 38.8341Z" fill="#5C1010"/>
<path d="M81.4258 10.3789C81.6739 10.794 81.9506 11.2999 82.2586 11.8965C82.561 12.4958 82.8747 13.1227 83.1885 13.7825C83.5051 14.4396 83.8188 15.1076 84.1297 15.7894C84.4378 16.4685 84.723 17.0981 84.9826 17.6754C85.2422 17.0981 85.5245 16.4713 85.8297 15.7894C86.1321 15.1104 86.4458 14.4396 86.7596 13.7825C87.0762 13.1227 87.3871 12.4958 87.6923 11.8965C87.9946 11.2972 88.2713 10.7913 88.5195 10.3789H90.4419C90.5446 11.2064 90.6444 12.0834 90.7357 13.0154C90.8298 13.9474 90.9097 14.8987 90.9867 15.8719C91.0609 16.8452 91.1322 17.8266 91.1921 18.8081C91.2548 19.7951 91.3119 20.7546 91.3575 21.6894H89.2611C89.2154 20.3752 89.1555 19.0198 89.0956 17.626C89.0329 16.2321 88.9359 14.8849 88.8075 13.5763C88.6849 13.8265 88.5366 14.1261 88.3683 14.4753C88.2028 14.8245 88.0203 15.2011 87.8263 15.608C87.6352 16.0176 87.4413 16.4383 87.2445 16.8727C87.0477 17.307 86.8537 17.7304 86.6683 18.1373C86.4829 18.5442 86.3089 18.9263 86.1549 19.2783C85.9952 19.6329 85.8582 19.9326 85.747 20.1828H84.1554C84.0442 19.9326 83.9073 19.6302 83.7475 19.27C83.5907 18.9126 83.4195 18.5277 83.2341 18.1181C83.0487 17.7112 82.8548 17.2905 82.658 16.8562C82.4611 16.4218 82.2672 16.0011 82.0761 15.5997C81.8821 15.1956 81.7024 14.819 81.5313 14.4671C81.363 14.1151 81.2175 13.8155 81.0949 13.5763C80.9665 14.8849 80.8696 16.2321 80.8068 17.626C80.7469 19.0171 80.6899 20.3725 80.6414 21.6894H78.5449C78.5877 20.7546 78.6448 19.7869 78.7104 18.7834C78.7703 17.7827 78.8416 16.7902 78.9157 15.8032C78.9927 14.819 79.0755 13.865 79.1667 12.9412C79.2609 12.0147 79.355 11.1624 79.4605 10.3789H81.4315H81.4258Z" fill="#5C1010"/>
<path d="M58.3482 21.9463C58.0806 21.4925 57.7822 20.9396 57.45 20.2874C57.124 19.6323 56.7856 18.9471 56.4472 18.2259C56.1058 17.5077 55.7674 16.7774 55.4321 16.0321C55.0999 15.2898 54.7923 14.6017 54.5124 13.9706C54.2324 14.6017 53.9279 15.2868 53.5988 16.0321C53.2727 16.7744 52.9343 17.5077 52.596 18.2259C52.2545 18.9471 51.9192 19.6323 51.5901 20.2874C51.264 20.9426 50.9656 21.4955 50.698 21.9463L48.6247 21.9463C48.514 21.0417 48.4063 20.0831 48.3079 19.0643C48.2064 18.0456 48.1202 17.0058 48.0372 15.942C47.9572 14.8781 47.8803 13.8053 47.8157 12.7324C47.748 11.6536 47.6865 10.6048 47.6373 9.58302L49.8982 9.58302C49.9474 11.0195 50.012 12.501 50.0766 14.0247C50.1443 15.5483 50.2489 17.0208 50.3873 18.4513C50.5196 18.1778 50.6796 17.8502 50.861 17.4686C51.0395 17.0869 51.2363 16.6752 51.4455 16.2305C51.6516 15.7827 51.8608 15.3229 52.073 14.8481C52.2853 14.3733 52.4944 13.9105 52.6944 13.4657C52.8943 13.0209 53.082 12.6032 53.2481 12.2186C53.4203 11.8309 53.568 11.5033 53.688 11.2299L55.4044 11.2299C55.5244 11.5033 55.672 11.8339 55.8443 12.2276C56.0135 12.6182 56.198 13.039 56.398 13.4867C56.5979 13.9315 56.8071 14.3913 57.0194 14.8661C57.2316 15.3409 57.4408 15.8007 57.6469 16.2395C57.8561 16.6812 58.0499 17.0929 58.2344 17.4776C58.4159 17.8623 58.5728 18.1898 58.7051 18.4513C58.8435 17.0208 58.9481 15.5483 59.0157 14.0247C59.0803 12.504 59.1419 11.0225 59.1942 9.58302L61.4551 9.58302C61.4089 10.6048 61.3474 11.6626 61.2767 12.7595C61.2121 13.8534 61.1352 14.9382 61.0552 16.0171C60.9721 17.0929 60.8829 18.1357 60.7845 19.1455C60.683 20.1582 60.5815 21.0898 60.4677 21.9463L58.3421 21.9463L58.3482 21.9463Z" fill="#5C1010"/>
<path d="M96.8456 20.301C97.476 20.301 97.9551 20.2653 98.2832 20.202V18.0136C98.1719 17.9806 98.0065 17.9476 97.7926 17.9146C97.5758 17.8844 97.3419 17.8652 97.0823 17.8652C96.8542 17.8652 96.626 17.8844 96.3949 17.9146C96.161 17.9476 95.9557 18.0081 95.7674 18.0933C95.582 18.1813 95.4308 18.3023 95.3196 18.459C95.2055 18.6185 95.1485 18.8136 95.1485 19.0556C95.1485 19.5257 95.3025 19.8474 95.6048 20.0288C95.9072 20.2075 96.3208 20.2982 96.8399 20.2982L96.8456 20.301ZM96.6745 12.9412C97.3533 12.9412 97.9209 13.0237 98.383 13.1859C98.8451 13.3481 99.2159 13.5763 99.4925 13.8705C99.7692 14.1619 99.966 14.5193 100.083 14.9372C100.203 15.3551 100.26 15.8142 100.26 16.3173V21.4914C99.9461 21.5547 99.4669 21.6344 98.828 21.7251C98.1919 21.8186 97.4703 21.8653 96.6688 21.8653C96.1382 21.8653 95.6533 21.8158 95.2141 21.7169C94.7748 21.6206 94.3955 21.4612 94.0874 21.244C93.7765 21.0241 93.5341 20.7436 93.3601 20.3945C93.1861 20.0453 93.0977 19.6164 93.0977 19.1051C93.0977 18.6157 93.1975 18.2006 93.3943 17.8624C93.5911 17.5242 93.8592 17.2521 94.1986 17.0404C94.5381 16.8259 94.9288 16.6747 95.3738 16.5812C95.8188 16.4878 96.2865 16.4438 96.7714 16.4438C96.9996 16.4438 97.2335 16.4575 97.4817 16.4823C97.7298 16.5125 97.9951 16.5565 98.2775 16.6225V16.2953C98.2775 16.0671 98.2518 15.8499 98.1919 15.641C98.1348 15.4348 98.035 15.2534 97.8952 15.0966C97.7526 14.9372 97.5672 14.8162 97.3333 14.731C97.1023 14.643 96.8142 14.599 96.4634 14.599C95.987 14.599 95.5535 14.632 95.1599 14.6953C94.7663 14.7612 94.4439 14.8382 94.1929 14.9234L93.9391 13.3234C94.1986 13.2354 94.5752 13.1502 95.0743 13.0622C95.5735 12.9742 96.104 12.933 96.6659 12.933L96.6745 12.9412Z" fill="#5C1010"/>
<path d="M67.4587 20.2269C68.1628 20.2269 68.698 20.1876 69.0644 20.1181V17.7127C68.9402 17.6765 68.7554 17.6402 68.5164 17.604C68.2743 17.5707 68.0131 17.5496 67.7231 17.5496C67.4683 17.5496 67.2134 17.5707 66.9553 17.604C66.6941 17.6402 66.4647 17.7067 66.2545 17.8004C66.0474 17.8971 65.8785 18.03 65.7543 18.2023C65.6268 18.3775 65.5631 18.5921 65.5631 18.858C65.5631 19.3747 65.7352 19.7283 66.0729 19.9277C66.4106 20.1242 66.8725 20.2239 67.4523 20.2239L67.4587 20.2269ZM67.2676 12.1375C68.0258 12.1375 68.6598 12.2281 69.1759 12.4064C69.692 12.5847 70.1062 12.8355 70.4152 13.1589C70.7243 13.4792 70.9441 13.872 71.0747 14.3313C71.2085 14.7906 71.2722 15.2953 71.2722 15.8483V21.5353C70.9218 21.6048 70.3865 21.6925 69.6729 21.7922C68.9625 21.8949 68.1564 21.9463 67.2612 21.9463C66.6686 21.9463 66.127 21.8919 65.6364 21.7831C65.1458 21.6774 64.722 21.5021 64.378 21.2634C64.0307 21.0216 63.7599 20.7134 63.5656 20.3296C63.3712 19.9459 63.2725 19.4745 63.2725 18.9124C63.2725 18.3745 63.384 17.9182 63.6038 17.5465C63.8236 17.1749 64.1231 16.8757 64.5022 16.643C64.8813 16.4073 65.3178 16.2411 65.8148 16.1384C66.3118 16.0356 66.8343 15.9873 67.3759 15.9873C67.6308 15.9873 67.892 16.0024 68.1692 16.0296C68.4463 16.0628 68.7426 16.1112 69.058 16.1837V15.8241C69.058 15.5733 69.0294 15.3346 68.9625 15.1049C68.8987 14.8783 68.7872 14.6788 68.6311 14.5066C68.4718 14.3313 68.2647 14.1984 68.0035 14.1047C67.7454 14.008 67.4237 13.9596 67.0318 13.9596C66.4998 13.9596 66.0155 13.9959 65.5759 14.0654C65.1362 14.1379 64.7762 14.2225 64.4958 14.3162L64.2123 12.5575C64.5022 12.4608 64.9228 12.3671 65.4803 12.2704C66.0378 12.1737 66.6304 12.1284 67.258 12.1284L67.2676 12.1375Z" fill="#5C1010"/>
<path d="M102.772 13.4306C103.166 13.3206 103.679 13.2161 104.313 13.1199C104.946 13.0209 105.645 12.9714 106.415 12.9714C107.136 12.9714 107.741 13.0677 108.226 13.2601C108.714 13.4498 109.099 13.7165 109.387 14.0601C109.675 14.4038 109.88 14.8162 109.997 15.3001C110.114 15.7839 110.174 16.3145 110.174 16.8919V21.6893H108.126V17.2025C108.126 16.7434 108.095 16.3558 108.032 16.0341C107.969 15.7124 107.87 15.4513 107.73 15.2506C107.587 15.0499 107.396 14.9014 107.154 14.8107C106.911 14.7172 106.615 14.6705 106.264 14.6705C106.004 14.6705 105.733 14.687 105.451 14.72C105.168 14.753 104.957 14.7777 104.823 14.8024V21.6893H102.775V13.4333L102.772 13.4306Z" fill="#5C1010"/>
<path d="M115.791 20.301C116.421 20.301 116.903 20.2653 117.231 20.202V18.0136C117.117 17.9806 116.952 17.9476 116.738 17.9146C116.524 17.8844 116.287 17.8652 116.028 17.8652C115.799 17.8652 115.574 17.8844 115.34 17.9146C115.109 17.9476 114.901 18.0081 114.713 18.0933C114.527 18.1813 114.376 18.3023 114.265 18.459C114.154 18.6185 114.094 18.8136 114.094 19.0556C114.094 19.5257 114.248 19.8474 114.55 20.0288C114.855 20.2075 115.266 20.2982 115.785 20.2982L115.791 20.301ZM115.62 12.9412C116.299 12.9412 116.866 13.0237 117.331 13.1859C117.793 13.3481 118.161 13.5763 118.438 13.8705C118.715 14.1619 118.914 14.5193 119.031 14.9372C119.148 15.3551 119.208 15.8142 119.208 16.3173V21.4914C118.891 21.5547 118.415 21.6344 117.776 21.7251C117.14 21.8186 116.416 21.8653 115.614 21.8653C115.084 21.8653 114.599 21.8158 114.159 21.7169C113.72 21.6206 113.344 21.4612 113.033 21.244C112.725 21.0241 112.479 20.7436 112.305 20.3945C112.131 20.0453 112.043 19.6164 112.043 19.1051C112.043 18.6157 112.143 18.2006 112.34 17.8624C112.539 17.5242 112.807 17.2521 113.147 17.0404C113.483 16.8259 113.877 16.6747 114.322 16.5812C114.767 16.4878 115.232 16.4438 115.72 16.4438C115.945 16.4438 116.182 16.4575 116.43 16.4823C116.675 16.5125 116.94 16.5565 117.223 16.6225V16.2953C117.223 16.0671 117.197 15.8499 117.14 15.641C117.083 15.4348 116.983 15.2534 116.841 15.0966C116.701 14.9372 116.513 14.8162 116.282 14.731C116.048 14.643 115.76 14.599 115.409 14.599C114.935 14.599 114.502 14.632 114.105 14.6953C113.712 14.7612 113.389 14.8382 113.138 14.9234L112.887 13.3234C113.147 13.2354 113.523 13.1502 114.02 13.0622C114.519 12.9742 115.049 12.933 115.611 12.933L115.62 12.9412Z" fill="#5C1010"/>
<path d="M123.326 17.2026C123.326 18.0384 123.514 18.6515 123.896 19.0364C124.273 19.424 124.76 19.6165 125.359 19.6165C125.688 19.6165 125.993 19.5725 126.284 19.4845C126.572 19.3965 126.803 19.2948 126.982 19.1766V14.753C126.837 14.72 126.657 14.6898 126.441 14.6623C126.227 14.6375 125.956 14.6238 125.628 14.6238C124.883 14.6238 124.313 14.8575 123.919 15.3331C123.523 15.806 123.326 16.4301 123.326 17.2026ZM129.03 20.8234C129.03 22.1843 128.671 23.1767 127.955 23.8118C127.239 24.4414 126.141 24.7576 124.661 24.7576C124.119 24.7576 123.591 24.7136 123.078 24.6256C122.567 24.5376 122.099 24.4249 121.683 24.2819L122.054 22.6021C122.404 22.7424 122.801 22.8578 123.246 22.9458C123.691 23.0338 124.176 23.075 124.695 23.075C125.519 23.075 126.107 22.9128 126.455 22.5857C126.806 22.2612 126.98 21.7774 126.98 21.134V20.8096C126.777 20.9059 126.509 21.0048 126.175 21.1011C125.844 21.2 125.462 21.2495 125.031 21.2495C124.47 21.2495 123.95 21.1615 123.483 20.9883C123.015 20.8151 122.613 20.5594 122.279 20.2213C121.948 19.8831 121.689 19.4625 121.503 18.9566C121.318 18.4508 121.224 17.8652 121.224 17.2026C121.224 16.5813 121.323 16.0122 121.52 15.4898C121.717 14.9675 122.005 14.5193 122.385 14.1509C122.761 13.7825 123.22 13.4911 123.762 13.2849C124.304 13.0787 124.92 12.9742 125.608 12.9742C126.272 12.9742 126.908 13.0237 127.504 13.1227C128.103 13.2189 128.611 13.3234 129.028 13.4334V20.8261L129.03 20.8234Z" fill="#5C1010"/>
<path d="M131.149 17.461C131.149 16.7105 131.266 16.0506 131.497 15.487C131.731 14.9207 132.036 14.4506 132.422 14.0739C132.804 13.7 133.246 13.4141 133.742 13.2244C134.238 13.0347 134.746 12.9385 135.265 12.9385C136.483 12.9385 137.433 13.3014 138.118 14.0327C138.802 14.7612 139.142 15.8499 139.142 17.2961C139.142 17.4033 139.139 17.5242 139.133 17.6617C139.127 17.7992 139.119 17.9201 139.107 18.0274H133.266C133.323 18.7119 133.574 19.2425 134.022 19.6192C134.467 19.9931 135.114 20.18 135.961 20.18C136.458 20.18 136.911 20.1388 137.325 20.0508C137.738 19.9628 138.061 19.8721 138.297 19.7731L138.568 21.3869C138.457 21.4419 138.3 21.4997 138.103 21.5574C137.904 21.6179 137.678 21.6729 137.424 21.7224C137.171 21.7718 136.897 21.8131 136.603 21.8461C136.306 21.8791 136.01 21.8928 135.707 21.8928C134.929 21.8928 134.25 21.7828 133.674 21.5574C133.098 21.3375 132.624 21.024 132.25 20.6309C131.88 20.2323 131.6 19.7621 131.42 19.226C131.241 18.6872 131.149 18.0988 131.149 17.4583V17.461ZM137.094 16.5785C137.094 16.3063 137.057 16.0479 136.977 15.8032C136.897 15.5585 136.783 15.3468 136.629 15.1681C136.475 14.9894 136.289 14.8465 136.07 14.7447C135.847 14.643 135.585 14.588 135.282 14.588C134.966 14.588 134.689 14.6458 134.455 14.7585C134.219 14.8712 134.019 15.0224 133.853 15.2066C133.688 15.3936 133.562 15.6053 133.474 15.8444C133.38 16.0836 133.32 16.3256 133.286 16.5757H137.096L137.094 16.5785Z" fill="#5C1010"/>
<path d="M146.359 17.2025C146.359 16.309 146.242 15.6657 146.011 15.2671C145.777 14.8684 145.347 14.6705 144.713 14.6705C144.488 14.6705 144.24 14.687 143.969 14.72C143.698 14.753 143.493 14.7777 143.359 14.8024V21.6893H141.311V13.4333C141.704 13.3233 142.22 13.2189 142.859 13.1226C143.495 13.0237 144.171 12.9742 144.884 12.9742C145.495 12.9742 145.994 13.0512 146.382 13.2024C146.77 13.3563 147.095 13.5543 147.355 13.8072C147.477 13.7192 147.637 13.6285 147.828 13.5295C148.019 13.4306 148.236 13.3426 148.47 13.2601C148.707 13.1776 148.96 13.1089 149.226 13.0539C149.491 13.0017 149.759 12.9714 150.03 12.9714C150.72 12.9714 151.285 13.0677 151.73 13.2601C152.175 13.4498 152.526 13.7165 152.78 14.0601C153.034 14.4038 153.21 14.8162 153.305 15.3001C153.401 15.7839 153.45 16.3145 153.45 16.8919V21.6893H151.399V17.2025C151.399 16.309 151.288 15.6657 151.063 15.2671C150.834 14.8684 150.401 14.6705 149.759 14.6705C149.431 14.6705 149.123 14.7227 148.826 14.8272C148.533 14.9289 148.316 15.0306 148.168 15.1269C148.259 15.4018 148.322 15.6877 148.353 15.9929C148.39 16.2953 148.404 16.6225 148.404 16.9716V21.6893H146.356V17.2025H146.359Z" fill="#5C1010"/>
<path d="M155.467 17.461C155.467 16.7105 155.584 16.0506 155.815 15.487C156.049 14.9207 156.354 14.4506 156.739 14.0739C157.121 13.7 157.563 13.4141 158.057 13.2244C158.556 13.0347 159.064 12.9385 159.583 12.9385C160.801 12.9385 161.75 13.3014 162.435 14.0327C163.117 14.7612 163.459 15.8499 163.459 17.2961C163.459 17.4033 163.456 17.5242 163.45 17.6617C163.445 17.7992 163.436 17.9201 163.425 18.0274H157.583C157.64 18.7119 157.891 19.2425 158.339 19.6192C158.784 19.9931 159.432 20.18 160.276 20.18C160.775 20.18 161.228 20.1388 161.642 20.0508C162.053 19.9628 162.378 19.8721 162.615 19.7731L162.886 21.3869C162.774 21.4419 162.618 21.4997 162.421 21.5574C162.221 21.6179 161.996 21.6729 161.742 21.7224C161.488 21.7718 161.214 21.8131 160.92 21.8461C160.624 21.8791 160.327 21.8928 160.025 21.8928C159.246 21.8928 158.567 21.7828 157.991 21.5574C157.415 21.3375 156.941 21.024 156.568 20.6309C156.194 20.2323 155.917 19.7621 155.738 19.226C155.558 18.6872 155.467 18.0988 155.467 17.4583V17.461ZM161.411 16.5785C161.411 16.3063 161.374 16.0479 161.294 15.8032C161.214 15.5585 161.1 15.3468 160.946 15.1681C160.792 14.9894 160.607 14.8465 160.387 14.7447C160.165 14.643 159.902 14.588 159.6 14.588C159.283 14.588 159.007 14.6458 158.77 14.7585C158.536 14.8712 158.336 15.0224 158.171 15.2066C158.005 15.3936 157.877 15.6053 157.789 15.8444C157.697 16.0836 157.637 16.3256 157.603 16.5757H161.414L161.411 16.5785Z" fill="#5C1010"/>
<path d="M165.626 13.4306C166.02 13.3206 166.533 13.2161 167.166 13.1199C167.799 13.0209 168.498 12.9714 169.268 12.9714C169.99 12.9714 170.595 13.0677 171.08 13.2601C171.567 13.4498 171.952 13.7165 172.24 14.0601C172.529 14.4038 172.734 14.8162 172.851 15.3001C172.968 15.7839 173.028 16.3145 173.028 16.8919V21.6893H170.98V17.2025C170.98 16.7434 170.948 16.3558 170.886 16.0341C170.823 15.7124 170.723 15.4513 170.583 15.2506C170.441 15.0499 170.25 14.9014 170.007 14.8107C169.765 14.7172 169.468 14.6705 169.117 14.6705C168.858 14.6705 168.587 14.687 168.304 14.72C168.022 14.753 167.811 14.7777 167.677 14.8024V21.6893H165.629V13.4333L165.626 13.4306Z" fill="#5C1010"/>
<mask id="mask1_225_12" style="mask-type:luminance" maskUnits="userSpaceOnUse" x="175" y="10" width="6" height="13">
<path d="M175.363 10.3102H180.999V22.275H175.363V10.3102Z" fill="white"/>
</mask>
<g mask="url(#mask1_225_12)">
<path d="M175.43 10.9013L177.478 10.5741V13.1529H180.629V14.8025H177.478V18.2775C177.478 18.9621 177.589 19.4542 177.817 19.7456C178.045 20.0398 178.427 20.1855 178.969 20.1855C179.34 20.1855 179.671 20.1498 179.959 20.0728C180.247 19.9958 180.475 19.9243 180.647 19.8611L180.986 21.4282C180.749 21.5271 180.438 21.6261 180.053 21.7278C179.671 21.8323 179.22 21.8845 178.698 21.8845C178.068 21.8845 177.538 21.8021 177.115 21.6399C176.69 21.4749 176.357 21.2412 176.109 20.9306C175.86 20.6199 175.684 20.246 175.584 19.8061C175.481 19.3662 175.43 18.8631 175.43 18.2968V10.9013Z" fill="#5C1010"/>
</g>
</svg>
