<svg width="46" height="46" viewBox="0 0 46 46" fill="none" xmlns="http://www.w3.org/2000/svg">
<path d="M46 23C46 23.7532 45.9629 24.5064 45.8888 25.2555C45.8147 26.0047 45.7035 26.7496 45.5553 27.4864C45.4112 28.2273 45.2259 28.9558 45.0077 29.6761C44.7895 30.3964 44.5342 31.1084 44.246 31.804C43.9577 32.4996 43.6366 33.1788 43.2825 33.8414C42.9284 34.5082 42.5414 35.1544 42.1214 35.7801C41.7055 36.4057 41.2567 37.0107 40.7791 37.5911C40.3015 38.1756 39.795 38.7312 39.2639 39.2663C38.7286 39.7972 38.1728 40.3035 37.5881 40.781C37.0075 41.2584 36.4023 41.7071 35.7764 42.1228C35.1506 42.5426 34.5041 42.9295 33.8412 43.2835C33.1783 43.6416 32.4989 43.9626 31.799 44.2507C31.1031 44.5388 30.3949 44.7899 29.6744 45.0122C28.9538 45.2303 28.225 45.4114 27.488 45.5596C26.7469 45.7078 26.0057 45.8148 25.2564 45.8889C24.5029 45.963 23.7535 46 23 46C22.2465 46 21.4971 45.963 20.7478 45.8889C19.9943 45.8148 19.2531 45.7078 18.512 45.5596C17.775 45.4114 17.0462 45.2303 16.3256 45.0122C15.6051 44.7899 14.8969 44.5388 14.201 44.2507C13.5052 43.9626 12.8217 43.6416 12.1588 43.2835C11.4959 42.9295 10.8494 42.5426 10.2236 42.1228C9.59774 41.7071 8.99248 41.2584 8.41192 40.781C7.82725 40.3035 7.27139 39.7972 6.73613 39.2663C6.20498 38.7312 5.69853 38.1756 5.22091 37.5911C4.74329 37.0107 4.29449 36.4057 3.87862 35.7801C3.45865 35.1544 3.07161 34.5082 2.71751 33.8414C2.36341 33.1788 2.04225 32.4996 1.75403 31.804C1.46581 31.1084 1.21053 30.3964 0.992302 29.6761C0.774077 28.9558 0.592912 28.2273 0.444683 27.4864C0.296456 26.7496 0.185285 26.0047 0.111171 25.2555C0.0370575 24.5064 0.00411717 23.7532 0 23C0.00411717 22.2468 0.0370575 21.4977 0.111171 20.7486C0.185285 19.9953 0.296456 19.2545 0.444683 18.5136C0.592912 17.7768 0.774077 17.0442 0.992302 16.3239C1.21053 15.6036 1.46581 14.8957 1.75403 14.2001C2.04225 13.5045 2.36341 12.8253 2.71751 12.1586C3.07161 11.4959 3.45865 10.8497 3.87862 10.2241C4.29449 9.59843 4.74329 8.99338 5.22091 8.40891C5.69853 7.82856 6.20498 7.26879 6.73613 6.73783C7.27139 6.20687 7.82725 5.70061 8.41192 5.22316C8.99248 4.74571 9.59774 4.29707 10.2236 3.87724C10.8494 3.45741 11.4959 3.07051 12.1588 2.71654C12.8217 2.36256 13.5052 2.04152 14.201 1.7534C14.8969 1.46528 15.6051 1.21009 16.3256 0.991947C17.0462 0.773801 17.775 0.588582 18.512 0.444524C19.2531 0.296349 19.9943 0.185218 20.7478 0.111131C21.4971 0.0370431 22.2465 0 23 0C23.7535 0 24.5029 0.0370431 25.2564 0.111131C26.0057 0.185218 26.7469 0.296349 27.488 0.444524C28.225 0.588582 28.9538 0.773801 29.6744 0.991947C30.3949 1.21009 31.1031 1.46528 31.799 1.7534C32.4989 2.04152 33.1783 2.36256 33.8412 2.71654C34.5041 3.07051 35.1506 3.45741 35.7764 3.87724C36.4023 4.29707 37.0075 4.74571 37.5881 5.22316C38.1728 5.70061 38.7286 6.20687 39.2639 6.73783C39.795 7.26879 40.3015 7.82856 40.7791 8.40891C41.2567 8.99338 41.7055 9.59843 42.1214 10.2241C42.5414 10.8497 42.9284 11.4959 43.2825 12.1586C43.6366 12.8253 43.9577 13.5045 44.246 14.2001C44.5342 14.8957 44.7895 15.6036 45.0077 16.3239C45.2259 17.0442 45.4112 17.7768 45.5553 18.5136C45.7035 19.2545 45.8147 19.9953 45.8888 20.7486C45.9629 21.4977 46 22.2468 46 23Z" fill="#FEFEFE"/>
<path fill-rule="evenodd" clip-rule="evenodd" d="M23.028 12.0041C27.6995 12.0041 31.6939 14.9598 33.3165 19.1338H33.3726C35.9167 19.1338 38 21.2597 38 23.8598V25.2293C38 27.8253 35.9207 29.9511 33.3726 29.9511H31.9784C30.2075 32.4285 27.4752 34.1456 24.3462 34.5258C24.262 34.7997 24.0096 35 23.7131 35H20.7404C20.3758 35 20.0753 34.6975 20.0753 34.3214V33.1399C20.0753 32.7679 20.3718 32.4613 20.7404 32.4613H23.7131C23.9896 32.4613 24.23 32.6411 24.3261 32.8864C28.9495 32.2364 32.5032 28.1932 32.5032 23.2997C32.5032 17.9565 28.2604 13.623 23.024 13.623C17.7917 13.623 13.5489 17.9524 13.5489 23.2997C13.5489 25.863 14.5224 28.1973 16.121 29.9266H12.2348C9.87099 29.7222 8 27.6822 8 25.2211V23.8516C8 21.2556 10.0793 19.1298 12.6274 19.1298H12.7356C14.3622 14.9517 18.3566 12 23.024 12L23.028 12.0041ZM23.028 15.6385C27.1747 15.6385 30.5361 19.0684 30.5361 23.3038C30.5361 27.535 27.1747 30.9691 23.028 30.9691C22.1787 30.9691 21.3614 30.8219 20.6002 30.5562C18.7212 32.171 15.1995 32.8292 16.5096 32.1219C17.4351 31.6232 17.6675 29.9143 17.7196 28.7165C16.3614 27.3306 15.52 25.4173 15.52 23.2997C15.52 19.0684 18.8814 15.6344 23.028 15.6344V15.6385ZM25.9928 22.3676C26.5537 22.3676 27.0104 22.8295 27.0104 23.406C27.0104 23.9742 26.5577 24.4403 25.9928 24.4403C25.4359 24.4403 24.9792 23.9783 24.9792 23.406C24.9792 22.8336 25.4319 22.3676 25.9928 22.3676ZM23.028 22.3676C23.5889 22.3676 24.0457 22.8295 24.0457 23.406C24.0457 23.9742 23.5929 24.4403 23.028 24.4403C22.4712 24.4403 22.0144 23.9783 22.0144 23.406C22.0144 22.8336 22.4671 22.3676 23.028 22.3676ZM20.0633 22.3676C20.6242 22.3676 21.0809 22.8295 21.0809 23.406C21.0809 23.9742 20.6282 24.4403 20.0633 24.4403C19.5064 24.4403 19.0497 23.9783 19.0497 23.406C19.0497 22.8336 19.5024 22.3676 20.0633 22.3676Z" fill="#470404"/>
</svg>
